<mxfile host="app.diagrams.net" modified="2021-11-05T13:17:22.906Z" agent="5.0 (Windows NT 10.0; Win64; x64) AppleWebKit/537.36 (KHTML, like Gecko) Chrome/95.0.4638.54 Safari/537.36 Edg/95.0.1020.40" etag="mZhoAKfvP347gBmENCzI" version="15.6.8" type="github">
  <diagram id="VEG4tOJ95xt15z2ZkPPf" name="Page-1">
    <mxGraphModel dx="981" dy="548" grid="1" gridSize="10" guides="1" tooltips="1" connect="1" arrows="1" fold="1" page="1" pageScale="1" pageWidth="827" pageHeight="1169" math="0" shadow="0">
      <root>
        <mxCell id="0" />
        <mxCell id="1" parent="0" />
        <mxCell id="HXX-870-PkS35U6WGjvh-2" value="逻辑层：包含游戏中所有逻辑" style="rounded=0;whiteSpace=wrap;html=1;" vertex="1" parent="1">
          <mxGeometry x="170" y="390" width="470" height="50" as="geometry" />
        </mxCell>
        <mxCell id="HXX-870-PkS35U6WGjvh-3" value="交互层：包含所有的传感器和效果呈现设备" style="rounded=0;whiteSpace=wrap;html=1;" vertex="1" parent="1">
          <mxGeometry x="170" y="280" width="470" height="50" as="geometry" />
        </mxCell>
        <mxCell id="HXX-870-PkS35U6WGjvh-4" value="通信层：以WiFi为基础，增设lora/蓝牙/其他无线传输方式为备选通道" style="rounded=0;whiteSpace=wrap;html=1;" vertex="1" parent="1">
          <mxGeometry x="170" y="330" width="470" height="60" as="geometry" />
        </mxCell>
        <mxCell id="HXX-870-PkS35U6WGjvh-11" style="edgeStyle=orthogonalEdgeStyle;rounded=0;orthogonalLoop=1;jettySize=auto;html=1;entryX=1;entryY=0.5;entryDx=0;entryDy=0;" edge="1" parent="1" source="HXX-870-PkS35U6WGjvh-6" target="HXX-870-PkS35U6WGjvh-2">
          <mxGeometry relative="1" as="geometry" />
        </mxCell>
        <mxCell id="HXX-870-PkS35U6WGjvh-6" value="非故障类跳关" style="whiteSpace=wrap;html=1;rounded=0;" vertex="1" parent="1">
          <mxGeometry x="670" y="390" width="120" height="50" as="geometry" />
        </mxCell>
        <mxCell id="HXX-870-PkS35U6WGjvh-10" style="edgeStyle=orthogonalEdgeStyle;rounded=0;orthogonalLoop=1;jettySize=auto;html=1;entryX=1;entryY=0.5;entryDx=0;entryDy=0;" edge="1" parent="1" source="HXX-870-PkS35U6WGjvh-8" target="HXX-870-PkS35U6WGjvh-3">
          <mxGeometry relative="1" as="geometry" />
        </mxCell>
        <mxCell id="HXX-870-PkS35U6WGjvh-8" value="故障类跳关" style="whiteSpace=wrap;html=1;rounded=0;" vertex="1" parent="1">
          <mxGeometry x="670" y="280" width="120" height="50" as="geometry" />
        </mxCell>
        <mxCell id="HXX-870-PkS35U6WGjvh-13" value="数据层：存储游戏初始化信息，游戏道具机关信息和运营数据" style="rounded=0;whiteSpace=wrap;html=1;" vertex="1" parent="1">
          <mxGeometry x="170" y="440" width="470" height="60" as="geometry" />
        </mxCell>
      </root>
    </mxGraphModel>
  </diagram>
</mxfile>
